<svg xmlns="http://www.w3.org/2000/svg" viewBox="0 0 1600 750" width="1600" height="750" font-family="'PingFang SC','Microsoft YaHei','Noto Sans CJK SC','Segoe UI',Helvetica,Arial,sans-serif">
  <defs>
    <pattern id="dots" width="28" height="28" patternUnits="userSpaceOnUse">
      <circle cx="2" cy="2" r="1.1" fill="#1e293b" />
    </pattern>
    <marker id="arrowRed" viewBox="0 0 10 10" refX="8" refY="5" markerWidth="6" markerHeight="6" orient="auto-start-reverse">
      <path d="M0,0 L10,5 L0,10 z" fill="#f87171" />
    </marker>
    <marker id="arrowCyan2" viewBox="0 0 10 10" refX="8" refY="5" markerWidth="7" markerHeight="7" orient="auto-start-reverse">
      <path d="M0,0 L10,5 L0,10 z" fill="#22d3ee" />
    </marker>
  </defs>

  <rect x="0" y="0" width="1600" height="750" fill="#0b1220" />
  <rect x="0" y="0" width="1600" height="750" fill="url(#dots)" />

  <!-- header -->
  <text x="800" y="56" text-anchor="middle" font-size="32" font-weight="700" fill="#f1f5f9">同一个问题，两种代价</text>
  <text x="800" y="88" text-anchor="middle" font-size="17" fill="#94a3b8">没有 cosmic_kb：翻源码、切设计器、满屏猜字段；接入后：一次提问，直接拿到证据链</text>

  <!-- LEFT PANEL: 没有 cosmic_kb -->
  <rect x="60" y="130" width="700" height="540" rx="18" fill="#0f172a" stroke="#7f1d1d" stroke-opacity="0.55" stroke-width="1.5" />
  <text x="410" y="500" text-anchor="middle" font-size="210" font-weight="800" fill="#f87171" opacity="0.045">100+</text>

  <rect x="90" y="148" width="230" height="40" rx="20" fill="#3f1418" stroke="#f87171" stroke-width="1" />
  <text x="205" y="174" text-anchor="middle" font-size="18" font-weight="600" fill="#fca5a5">没有 cosmic_kb</text>

  <!-- tangled red connectors (drawn before icons so icons sit on top) -->
  <g fill="none" stroke="#f87171" stroke-width="2" stroke-opacity="0.65" stroke-dasharray="5 4">
    <path d="M170,240 C260,360 380,160 330,215" marker-end="url(#arrowRed)" />
    <path d="M330,215 C420,300 250,360 200,400" marker-end="url(#arrowRed)" />
    <path d="M460,250 C380,340 470,380 340,440" marker-end="url(#arrowRed)" />
    <path d="M200,400 C300,340 420,470 500,390" marker-end="url(#arrowRed)" />
    <path d="M340,440 C420,380 430,300 460,250" marker-end="url(#arrowRed)" />
    <path d="M170,240 C280,270 400,380 500,390" marker-end="url(#arrowRed)" />
  </g>

  <!-- dead-end x marks -->
  <g stroke="#f87171" stroke-width="4" stroke-linecap="round">
    <path d="M255,295 L269,309 M269,295 L255,309" />
    <path d="M410,340 L424,354 M424,340 L410,354" />
    <path d="M300,470 L314,484 M314,470 L300,484" />
  </g>

  <!-- floating question marks -->
  <text x="620" y="220" font-size="40" fill="#fbbf24" opacity="0.9" transform="rotate(-8 620 220)">?</text>
  <text x="560" y="310" font-size="46" fill="#fbbf24" opacity="0.9" transform="rotate(6 560 310)">?</text>
  <text x="440" y="510" font-size="36" fill="#fbbf24" opacity="0.85" transform="rotate(-5 440 510)">?</text>

  <!-- file icon cluster -->
  <g>
    <g transform="translate(170,240) rotate(-8)">
      <rect x="-30" y="-38" width="60" height="76" rx="4" fill="#1e293b" stroke="#475569" stroke-width="1.5" />
      <path d="M18,-38 L30,-38 L30,-26 Z" fill="#475569" />
      <rect x="-20" y="-14" width="40" height="4" rx="2" fill="#64748b" />
      <rect x="-20" y="0" width="40" height="4" rx="2" fill="#64748b" />
      <rect x="-20" y="14" width="28" height="4" rx="2" fill="#64748b" />
    </g>
    <g transform="translate(330,215) rotate(6)">
      <rect x="-30" y="-38" width="60" height="76" rx="4" fill="#1e293b" stroke="#475569" stroke-width="1.5" />
      <path d="M18,-38 L30,-38 L30,-26 Z" fill="#475569" />
      <rect x="-20" y="-14" width="40" height="4" rx="2" fill="#64748b" />
      <rect x="-20" y="0" width="40" height="4" rx="2" fill="#64748b" />
      <rect x="-20" y="14" width="28" height="4" rx="2" fill="#64748b" />
    </g>
    <g transform="translate(460,250) rotate(-5)">
      <rect x="-30" y="-38" width="60" height="76" rx="4" fill="#1e293b" stroke="#475569" stroke-width="1.5" />
      <path d="M18,-38 L30,-38 L30,-26 Z" fill="#475569" />
      <rect x="-20" y="-14" width="40" height="4" rx="2" fill="#64748b" />
      <rect x="-20" y="0" width="40" height="4" rx="2" fill="#64748b" />
      <rect x="-20" y="14" width="28" height="4" rx="2" fill="#64748b" />
    </g>
    <g transform="translate(200,400) rotate(9)">
      <rect x="-30" y="-38" width="60" height="76" rx="4" fill="#1e293b" stroke="#475569" stroke-width="1.5" />
      <path d="M18,-38 L30,-38 L30,-26 Z" fill="#475569" />
      <rect x="-20" y="-14" width="40" height="4" rx="2" fill="#64748b" />
      <rect x="-20" y="0" width="40" height="4" rx="2" fill="#64748b" />
      <rect x="-20" y="14" width="28" height="4" rx="2" fill="#64748b" />
    </g>
    <g transform="translate(340,440) rotate(-7)">
      <rect x="-30" y="-38" width="60" height="76" rx="4" fill="#1e293b" stroke="#475569" stroke-width="1.5" />
      <path d="M18,-38 L30,-38 L30,-26 Z" fill="#475569" />
      <rect x="-20" y="-14" width="40" height="4" rx="2" fill="#64748b" />
      <rect x="-20" y="0" width="40" height="4" rx="2" fill="#64748b" />
      <rect x="-20" y="14" width="28" height="4" rx="2" fill="#64748b" />
    </g>
    <g transform="translate(500,390) rotate(5)">
      <rect x="-30" y="-38" width="60" height="76" rx="4" fill="#1e293b" stroke="#475569" stroke-width="1.5" />
      <path d="M18,-38 L30,-38 L30,-26 Z" fill="#475569" />
      <rect x="-20" y="-14" width="40" height="4" rx="2" fill="#64748b" />
      <rect x="-20" y="0" width="40" height="4" rx="2" fill="#64748b" />
      <rect x="-20" y="14" width="28" height="4" rx="2" fill="#64748b" />
    </g>
  </g>

  <text x="410" y="596" text-anchor="middle" font-size="14" fill="#64748b">全局搜索 · 设计器来回切 · 字段全靠命名猜</text>
  <text x="410" y="630" text-anchor="middle" font-size="18" font-weight="600" fill="#fca5a5">翻遍上百个源码文件，还是没找到答案</text>

  <!-- RIGHT PANEL: 接入 cosmic_kb -->
  <rect x="840" y="130" width="700" height="540" rx="18" fill="#0f172a" stroke="#22d3ee" stroke-opacity="0.55" stroke-width="1.5" />

  <rect x="870" y="148" width="230" height="40" rx="20" fill="#0b3742" stroke="#22d3ee" stroke-width="1" />
  <text x="985" y="174" text-anchor="middle" font-size="18" font-weight="600" fill="#67e8f9">接入 cosmic_kb</text>

  <!-- query box -->
  <rect x="1000" y="208" width="380" height="68" rx="16" fill="#1e293b" stroke="#334155" stroke-width="1" />
  <circle cx="1032" cy="242" r="10" fill="none" stroke="#7dd3fc" stroke-width="3" />
  <line x1="1040" y1="250" x2="1050" y2="260" stroke="#7dd3fc" stroke-width="3" stroke-linecap="round" />
  <text x="1066" y="248" font-size="17" fill="#e2e8f0">cqkd_amount 谁改的？</text>

  <line x1="1190" y1="276" x2="1190" y2="312" stroke="#22d3ee" stroke-width="2.5" marker-end="url(#arrowCyan2)" />

  <!-- kb hexagon node -->
  <polygon points="1190,318 1238,347 1238,401 1190,430 1142,401 1142,347" fill="#082f3a" stroke="#22d3ee" stroke-width="2" />
  <circle cx="1190" cy="360" r="5" fill="#67e8f9" />
  <circle cx="1170" cy="378" r="4" fill="#67e8f9" />
  <circle cx="1212" cy="378" r="4" fill="#67e8f9" />
  <line x1="1190" y1="360" x2="1170" y2="378" stroke="#67e8f9" stroke-width="1.5" />
  <line x1="1190" y1="360" x2="1212" y2="378" stroke="#67e8f9" stroke-width="1.5" />
  <text x="1190" y="415" text-anchor="middle" font-size="13" font-weight="600" fill="#67e8f9">cosmic_kb</text>

  <line x1="1190" y1="430" x2="1190" y2="466" stroke="#22d3ee" stroke-width="2.5" marker-end="url(#arrowCyan2)" />

  <!-- evidence card -->
  <rect x="970" y="472" width="440" height="130" rx="14" fill="#0f172a" stroke="#1e293b" stroke-width="1" />
  <rect x="970" y="472" width="6" height="130" rx="3" fill="#4ade80" />
  <text x="1000" y="510" font-size="16" fill="#e2e8f0" font-family="'Cascadia Code','Consolas','SFMono-Regular',Menlo,monospace">BeforeAuditPlugin.java : 142</text>
  <text x="1000" y="536" font-size="14" fill="#94a3b8">afterCreateNewData · 创建后</text>
  <rect x="1276" y="486" width="118" height="32" rx="16" fill="#052e16" stroke="#4ade80" stroke-width="1" />
  <text x="1335" y="507" text-anchor="middle" font-size="14" font-weight="600" fill="#4ade80">已落库 ✓</text>
  <text x="1000" y="576" font-size="14" fill="#64748b">entity=cqkd_zkd · field=cqkd_amount</text>

  <text x="1190" y="596" text-anchor="middle" font-size="14" fill="#64748b">一次查询 · 类 · 方法 · 事件 · 行号</text>
  <text x="1190" y="630" text-anchor="middle" font-size="18" font-weight="600" fill="#67e8f9">一条提问，直接拿到证据链</text>

  <!-- center arrow -->
  <text x="800" y="365" text-anchor="middle" font-size="46" fill="#475569">→</text>

  <text x="1540" y="720" text-anchor="end" font-size="14" fill="#475569">cosmic_kb</text>
</svg>
